{
  "accessors": [
    {
      "bufferView": 2,
      "componentType": 5126,
      "count": 4421,
      "max": [
        0.3160652816295624,
        0.15454831719398499,
        0.9391456842422485
      ],
      "min": [
        -0.31346920132637024,
        -0.3705779016017914,
        -1.1047254800796509
      ],
      "type": "VEC3"
    },
    {
      "bufferView": 2,
      "byteOffset": 53052,
      "componentType": 5126,
      "count": 4421,
      "max": [
        1.0,
        1.0,
        1.0
      ],
      "min": [
        -1.0,
        -1.0,
        -1.0
      ],
      "type": "VEC3"
    },
    {
      "bufferView": 3,
      "componentType": 5126,
      "count": 4421,
      "max": [
        0.9967222809791565,
        0.9999246597290039,
        1.0,
        1.0
      ],
      "min": [
        -0.9977134466171265,
        -1.0,
        -0.9977438449859619,
        -1.0
      ],
      "type": "VEC4"
    },
    {
      "bufferView": 1,
      "componentType": 5126,
      "count": 4421,
      "max": [
        0.9982604384422302,
        0.9982603192329407
      ],
      "min": [
        0.0017395445611327887,
        0.001739701023325324
      ],
      "type": "VEC2"
    },
    {
      "bufferView": 1,
      "byteOffset": 35368,
      "componentType": 5126,
      "count": 4421,
      "max": [
        0.9818395972251892,
        0.984751284122467
      ],
      "min": [
        -0.012546928599476814,
        0.009157324209809303
      ],
      "type": "VEC2"
    },
    {
      "bufferView": 0,
      "componentType": 5125,
      "count": 7374,
      "type": "SCALAR"
    },
    {
      "bufferView": 2,
      "byteOffset": 106104,
      "componentType": 5126,
      "count": 14032,
      "max": [
        0.966768741607666,
        0.970605731010437,
        1.1757575273513794
      ],
      "min": [
        -0.966768741607666,
        -0.5244789719581604,
        -4.029199600219727
      ],
      "type": "VEC3"
    },
    {
      "bufferView": 2,
      "byteOffset": 274488,
      "componentType": 5126,
      "count": 14032,
      "max": [
        1.0,
        1.0,
        1.0
      ],
      "min": [
        -1.0,
        -1.0,
        -1.0
      ],
      "type": "VEC3"
    },
    {
      "bufferView": 3,
      "byteOffset": 70736,
      "componentType": 5126,
      "count": 14032,
      "max": [
        1.0,
        1.0,
        1.0,
        1.0
      ],
      "min": [
        -1.0,
        -1.0,
        -1.0,
        -1.0
      ],
      "type": "VEC4"
    },
    {
      "bufferView": 1,
      "byteOffset": 70736,
      "componentType": 5126,
      "count": 14032,
      "max": [
        1.0,
        1.0041669607162476
      ],
      "min": [
        4.696146249649757e-10,
        -4.656612873077393e-10
      ],
      "type": "VEC2"
    },
    {
      "bufferView": 1,
      "byteOffset": 182992,
      "componentType": 5126,
      "count": 14032,
      "max": [
        0.997704267501831,
        0.9981241226196289
      ],
      "min": [
        0.0017395445611327887,
        0.001739701023325324
      ],
      "type": "VEC2"
    },
    {
      "bufferView": 0,
      "byteOffset": 29496,
      "componentType": 5125,
      "count": 29952,
      "type": "SCALAR"
    }
  ],
  "asset": {
    "extras": {
      "author": "tashtego (https://sketchfab.com/tashtego)",
      "license": "CC-BY-4.0 (http://creativecommons.org/licenses/by/4.0/)",
      "source": "https://sketchfab.com/3d-models/envisat-65b0ec49681a44f68dfc8bd4efe95839",
      "title": "Envisat"
    },
    "generator": "Sketchfab-12.68.0",
    "version": "2.0"
  },
  "bufferViews": [
    {
      "buffer": 0,
      "byteLength": 149304,
      "name": "floatBufferViews",
      "target": 34963
    },
    {
      "buffer": 0,
      "byteLength": 295248,
      "byteOffset": 149304,
      "byteStride": 8,
      "name": "floatBufferViews",
      "target": 34962
    },
    {
      "buffer": 0,
      "byteLength": 442872,
      "byteOffset": 444552,
      "byteStride": 12,
      "name": "floatBufferViews",
      "target": 34962
    },
    {
      "buffer": 0,
      "byteLength": 295248,
      "byteOffset": 887424,
      "byteStride": 16,
      "name": "floatBufferViews",
      "target": 34962
    }
  ],
  "buffers": [
    {
      "byteLength": 1182672,
      "uri": "scene.bin"
    }
  ],
  "images": [
    {
      "uri": "textures/Envisat_GoldFoil_metallicRoughness.png"
    },
    {
      "uri": "textures/Envisat_GoldFoil_normal.png"
    },
    {
      "uri": "textures/Envisat_color_baseColor.png"
    },
    {
      "uri": "textures/Envisat_color_metallicRoughness.png"
    },
    {
      "uri": "textures/Envisat_color_normal.png"
    }
  ],
  "materials": [
    {
      "doubleSided": true,
      "name": "Envisat_GoldFoil",
      "normalTexture": {
        "index": 1,
        "texCoord": 1
      },
      "occlusionTexture": {
        "index": 0
      },
      "pbrMetallicRoughness": {
        "baseColorFactor": [
          0.9602083826516892,
          0.2887443810399067,
          0.0,
          1.0
        ],
        "metallicRoughnessTexture": {
          "index": 0
        },
        "roughnessFactor": 0.2
      }
    },
    {
      "name": "Envisat_color",
      "normalTexture": {
        "index": 4
      },
      "occlusionTexture": {
        "index": 3
      },
      "pbrMetallicRoughness": {
        "baseColorTexture": {
          "index": 2
        },
        "metallicRoughnessTexture": {
          "index": 3
        },
        "roughnessFactor": 0.2
      }
    }
  ],
  "meshes": [
    {
      "name": "Object_0",
      "primitives": [
        {
          "attributes": {
            "NORMAL": 1,
            "POSITION": 0,
            "TANGENT": 2,
            "TEXCOORD_0": 3,
            "TEXCOORD_1": 4
          },
          "indices": 5,
          "material": 0,
          "mode": 4
        }
      ]
    },
    {
      "name": "Object_1",
      "primitives": [
        {
          "attributes": {
            "NORMAL": 7,
            "POSITION": 6,
            "TANGENT": 8,
            "TEXCOORD_0": 9,
            "TEXCOORD_1": 10
          },
          "indices": 11,
          "material": 1,
          "mode": 4
        }
      ]
    }
  ],
  "nodes": [
    {
      "children": [
        1
      ],
      "matrix": [
        1.0,
        0.0,
        0.0,
        0.0,
        0.0,
        2.220446049250313e-16,
        -1.0,
        0.0,
        0.0,
        1.0,
        2.220446049250313e-16,
        0.0,
        0.0,
        0.0,
        0.0,
        1.0
      ],
      "name": "Sketchfab_model"
    },
    {
      "children": [
        2
      ],
      "matrix": [
        1.0,
        0.0,
        0.0,
        0.0,
        0.0,
        0.0,
        1.0,
        0.0,
        0.0,
        -1.0,
        0.0,
        0.0,
        0.0,
        0.0,
        0.0,
        1.0
      ],
      "name": "621e78cd6a78404789078648868d01f6.fbx"
    },
    {
      "children": [
        3
      ],
      "name": "Object_2"
    },
    {
      "children": [
        4
      ],
      "name": "RootNode"
    },
    {
      "children": [
        5,
        6
      ],
      "name": "Envisat_High"
    },
    {
      "mesh": 0,
      "name": "Object_5"
    },
    {
      "mesh": 1,
      "name": "Object_6"
    }
  ],
  "samplers": [
    {
      "magFilter": 9729,
      "minFilter": 9987,
      "wrapS": 10497,
      "wrapT": 10497
    }
  ],
  "scene": 0,
  "scenes": [
    {
      "name": "Sketchfab_Scene",
      "nodes": [
        0
      ]
    }
  ],
  "textures": [
    {
      "sampler": 0,
      "source": 0
    },
    {
      "sampler": 0,
      "source": 1
    },
    {
      "sampler": 0,
      "source": 2
    },
    {
      "sampler": 0,
      "source": 3
    },
    {
      "sampler": 0,
      "source": 4
    }
  ]
}
