{
  "accessors": [
    {
      "bufferView": 2,
      "componentType": 5126,
      "count": 12663,
      "max": [
        -90.27320098876953,
        12.238200187683105,
        236.11500549316406
      ],
      "min": [
        -143.13400268554688,
        -7.988749980926514,
        -6.20890998840332
      ],
      "type": "VEC3"
    },
    {
      "bufferView": 2,
      "byteOffset": 151956,
      "componentType": 5126,
      "count": 12663,
      "max": [
        1.0,
        1.0,
        1.0
      ],
      "min": [
        -1.0,
        -1.0,
        -1.0
      ],
      "type": "VEC3"
    },
    {
      "bufferView": 3,
      "componentType": 5126,
      "count": 12663,
      "max": [
        1.0,
        1.0,
        1.0,
        1.0
      ],
      "min": [
        -1.0,
        -1.0,
        -1.0,
        1.0
      ],
      "type": "VEC4"
    },
    {
      "bufferView": 1,
      "componentType": 5126,
      "count": 12663,
      "max": [
        0.992044985294342,
        0.9925469756126404
      ],
      "min": [
        0.011081299744546413,
        0.008683839812874794
      ],
      "type": "VEC2"
    },
    {
      "bufferView": 0,
      "componentType": 5125,
      "count": 47010,
      "type": "SCALAR"
    }
  ],
  "asset": {
    "extras": {
      "author": "Antonio_Adams (https://sketchfab.com/AAdams3112)",
      "license": "CC-BY-4.0 (http://creativecommons.org/licenses/by/4.0/)",
      "source": "https://sketchfab.com/3d-models/spacex-falcon-heavylow-poly-0dc068a462e34258b3872085a7f592c8",
      "title": "SpaceX Falcon Heavy(Low Poly)"
    },
    "generator": "Sketchfab-13.45.0",
    "version": "2.0"
  },
  "bufferViews": [
    {
      "buffer": 0,
      "byteLength": 188040,
      "name": "floatBufferViews",
      "target": 34963
    },
    {
      "buffer": 0,
      "byteLength": 101304,
      "byteOffset": 188040,
      "byteStride": 8,
      "name": "floatBufferViews",
      "target": 34962
    },
    {
      "buffer": 0,
      "byteLength": 303912,
      "byteOffset": 289344,
      "byteStride": 12,
      "name": "floatBufferViews",
      "target": 34962
    },
    {
      "buffer": 0,
      "byteLength": 202608,
      "byteOffset": 593256,
      "byteStride": 16,
      "name": "floatBufferViews",
      "target": 34962
    }
  ],
  "buffers": [
    {
      "byteLength": 795864,
      "uri": "scene.bin"
    }
  ],
  "images": [
    {
      "uri": "textures/Material__26_baseColor.png"
    },
    {
      "uri": "textures/Material__26_metallicRoughness.png"
    },
    {
      "uri": "textures/Material__26_normal.png"
    }
  ],
  "materials": [
    {
      "doubleSided": true,
      "name": "Material__26",
      "normalTexture": {
        "index": 2
      },
      "occlusionTexture": {
        "index": 1
      },
      "pbrMetallicRoughness": {
        "baseColorTexture": {
          "index": 0
        },
        "metallicRoughnessTexture": {
          "index": 1
        }
      }
    }
  ],
  "meshes": [
    {
      "name": "Object_0",
      "primitives": [
        {
          "attributes": {
            "NORMAL": 1,
            "POSITION": 0,
            "TANGENT": 2,
            "TEXCOORD_0": 3
          },
          "indices": 4,
          "material": 0,
          "mode": 4
        }
      ]
    }
  ],
  "nodes": [
    {
      "children": [
        1
      ],
      "matrix": [
        1.0,
        0.0,
        0.0,
        0.0,
        0.0,
        2.220446049250313e-16,
        -1.0,
        0.0,
        0.0,
        1.0,
        2.220446049250313e-16,
        0.0,
        0.0,
        0.0,
        0.0,
        1.0
      ],
      "name": "Sketchfab_model"
    },
    {
      "children": [
        2
      ],
      "name": "Falco Heavy finished 1.obj.cleaner.materialmerger.gles"
    },
    {
      "mesh": 0,
      "name": "Object_2"
    }
  ],
  "samplers": [
    {
      "magFilter": 9729,
      "minFilter": 9987,
      "wrapS": 10497,
      "wrapT": 10497
    }
  ],
  "scene": 0,
  "scenes": [
    {
      "name": "Sketchfab_Scene",
      "nodes": [
        0
      ]
    }
  ],
  "textures": [
    {
      "sampler": 0,
      "source": 0
    },
    {
      "sampler": 0,
      "source": 1
    },
    {
      "sampler": 0,
      "source": 2
    }
  ]
}
