{
  "accessors": [
    {
      "bufferView": 2,
      "componentType": 5126,
      "count": 65532,
      "max": [
        13.78503704071045,
        3.3673152923583984,
        14.418237686157227
      ],
      "min": [
        -14.889756202697754,
        -15.187213897705078,
        -14.216453552246094
      ],
      "type": "VEC3"
    },
    {
      "bufferView": 2,
      "byteOffset": 786384,
      "componentType": 5126,
      "count": 65532,
      "max": [
        1.0,
        1.0,
        1.0
      ],
      "min": [
        -1.0,
        -1.0,
        -1.0
      ],
      "type": "VEC3"
    },
    {
      "bufferView": 1,
      "componentType": 5126,
      "count": 65532,
      "max": [
        0.9993966221809387,
        0.999212920665741
      ],
      "min": [
        0.0006033320678398013,
        0.0006033320678398013
      ],
      "type": "VEC2"
    },
    {
      "bufferView": 1,
      "byteOffset": 524256,
      "componentType": 5126,
      "count": 65532,
      "max": [
        0.9993966221809387,
        0.999212920665741
      ],
      "min": [
        0.0006033320678398013,
        0.0006033320678398013
      ],
      "type": "VEC2"
    },
    {
      "bufferView": 1,
      "byteOffset": 1048512,
      "componentType": 5126,
      "count": 65532,
      "max": [
        0.9993966221809387,
        0.999212920665741
      ],
      "min": [
        0.0006033320678398013,
        0.0006033320678398013
      ],
      "type": "VEC2"
    },
    {
      "bufferView": 0,
      "componentType": 5125,
      "count": 134643,
      "type": "SCALAR"
    },
    {
      "bufferView": 2,
      "byteOffset": 1572768,
      "componentType": 5126,
      "count": 33199,
      "max": [
        13.78503704071045,
        3.110459804534912,
        14.418237686157227
      ],
      "min": [
        -14.889756202697754,
        -12.701126098632813,
        -14.216453552246094
      ],
      "type": "VEC3"
    },
    {
      "bufferView": 2,
      "byteOffset": 1971156,
      "componentType": 5126,
      "count": 33199,
      "max": [
        1.0,
        1.0,
        1.0
      ],
      "min": [
        -1.0,
        -1.0,
        -1.0
      ],
      "type": "VEC3"
    },
    {
      "bufferView": 1,
      "byteOffset": 1572768,
      "componentType": 5126,
      "count": 33199,
      "max": [
        0.7227017283439636,
        0.7255873084068298
      ],
      "min": [
        0.0006033320678398013,
        0.0006033320678398013
      ],
      "type": "VEC2"
    },
    {
      "bufferView": 1,
      "byteOffset": 1838360,
      "componentType": 5126,
      "count": 33199,
      "max": [
        0.7227017283439636,
        0.7255873084068298
      ],
      "min": [
        0.0006033320678398013,
        0.0006033320678398013
      ],
      "type": "VEC2"
    },
    {
      "bufferView": 1,
      "byteOffset": 2103952,
      "componentType": 5126,
      "count": 33199,
      "max": [
        0.7227017283439636,
        0.7255873084068298
      ],
      "min": [
        0.0006033320678398013,
        0.0006033320678398013
      ],
      "type": "VEC2"
    },
    {
      "bufferView": 0,
      "byteOffset": 538572,
      "componentType": 5125,
      "count": 55389,
      "type": "SCALAR"
    },
    {
      "bufferView": 2,
      "byteOffset": 2369544,
      "componentType": 5126,
      "count": 19934,
      "max": [
        12.783348083496094,
        15.466194152832031,
        7.000577449798584
      ],
      "min": [
        -5.102895736694336,
        3.1864094734191895,
        -6.798773765563965
      ],
      "type": "VEC3"
    },
    {
      "bufferView": 2,
      "byteOffset": 2608752,
      "componentType": 5126,
      "count": 19934,
      "max": [
        1.0,
        1.0,
        1.0
      ],
      "min": [
        -1.0,
        -1.0,
        -1.0
      ],
      "type": "VEC3"
    },
    {
      "bufferView": 1,
      "byteOffset": 2369544,
      "componentType": 5126,
      "count": 19934,
      "max": [
        0.9995025396347046,
        0.9998063445091248
      ],
      "min": [
        0.000193575193407014,
        0.000193575193407014
      ],
      "type": "VEC2"
    },
    {
      "bufferView": 1,
      "byteOffset": 2529016,
      "componentType": 5126,
      "count": 19934,
      "max": [
        0.9995025396347046,
        0.9998063445091248
      ],
      "min": [
        0.000193575193407014,
        0.000193575193407014
      ],
      "type": "VEC2"
    },
    {
      "bufferView": 1,
      "byteOffset": 2688488,
      "componentType": 5126,
      "count": 19934,
      "max": [
        0.9995025396347046,
        0.9998063445091248
      ],
      "min": [
        0.000193575193407014,
        0.000193575193407014
      ],
      "type": "VEC2"
    },
    {
      "bufferView": 0,
      "byteOffset": 760128,
      "componentType": 5125,
      "count": 54732,
      "type": "SCALAR"
    },
    {
      "bufferView": 2,
      "byteOffset": 2847960,
      "componentType": 5126,
      "count": 2635,
      "max": [
        12.640326499938965,
        15.44222640991211,
        7.094527244567871
      ],
      "min": [
        -4.446846961975098,
        3.9654717445373535,
        -6.892724990844727
      ],
      "type": "VEC3"
    },
    {
      "bufferView": 2,
      "byteOffset": 2879580,
      "componentType": 5126,
      "count": 2635,
      "max": [
        0.996715784072876,
        0.9999968409538269,
        1.0
      ],
      "min": [
        -0.99791419506073,
        -0.9998582005500793,
        -1.0
      ],
      "type": "VEC3"
    },
    {
      "bufferView": 1,
      "byteOffset": 2847960,
      "componentType": 5126,
      "count": 2635,
      "max": [
        0.9913260340690613,
        0.9951417446136475
      ],
      "min": [
        0.0048582120798528194,
        0.0048582120798528194
      ],
      "type": "VEC2"
    },
    {
      "bufferView": 1,
      "byteOffset": 2869040,
      "componentType": 5126,
      "count": 2635,
      "max": [
        0.9913260340690613,
        0.9951417446136475
      ],
      "min": [
        0.0048582120798528194,
        0.0048582120798528194
      ],
      "type": "VEC2"
    },
    {
      "bufferView": 1,
      "byteOffset": 2890120,
      "componentType": 5126,
      "count": 2635,
      "max": [
        0.9913260340690613,
        0.9951417446136475
      ],
      "min": [
        0.0048582120798528194,
        0.0048582120798528194
      ],
      "type": "VEC2"
    },
    {
      "bufferView": 0,
      "byteOffset": 979056,
      "componentType": 5125,
      "count": 9606,
      "type": "SCALAR"
    },
    {
      "bufferView": 2,
      "byteOffset": 2911200,
      "componentType": 5126,
      "count": 1356,
      "max": [
        6.166429042816162,
        3.5496721267700195,
        6.989883899688721
      ],
      "min": [
        -7.637311935424805,
        -0.24762201309204102,
        -6.788082599639893
      ],
      "type": "VEC3"
    },
    {
      "bufferView": 2,
      "byteOffset": 2927472,
      "componentType": 5126,
      "count": 1356,
      "max": [
        0.9999638795852661,
        0.9999639391899109,
        1.0
      ],
      "min": [
        -0.9999639391899109,
        -0.9812451004981995,
        -1.0
      ],
      "type": "VEC3"
    },
    {
      "bufferView": 1,
      "byteOffset": 2911200,
      "componentType": 5126,
      "count": 1356,
      "max": [
        0.9999537467956543,
        0.9947986006736755
      ],
      "min": [
        4.623251152224839e-05,
        4.623251152224839e-05
      ],
      "type": "VEC2"
    },
    {
      "bufferView": 1,
      "byteOffset": 2922048,
      "componentType": 5126,
      "count": 1356,
      "max": [
        0.9999537467956543,
        0.9947986006736755
      ],
      "min": [
        4.623251152224839e-05,
        4.623251152224839e-05
      ],
      "type": "VEC2"
    },
    {
      "bufferView": 1,
      "byteOffset": 2932896,
      "componentType": 5126,
      "count": 1356,
      "max": [
        0.9999537467956543,
        0.9947986006736755
      ],
      "min": [
        4.623251152224839e-05,
        4.623251152224839e-05
      ],
      "type": "VEC2"
    },
    {
      "bufferView": 0,
      "byteOffset": 1017480,
      "componentType": 5125,
      "count": 2058,
      "type": "SCALAR"
    },
    {
      "bufferView": 2,
      "byteOffset": 2943744,
      "componentType": 5126,
      "count": 1794,
      "max": [
        13.658537864685059,
        0.6207370758056641,
        14.33181095123291
      ],
      "min": [
        -14.80329704284668,
        -4.6145172119140625,
        -14.130024909973145
      ],
      "type": "VEC3"
    },
    {
      "bufferView": 2,
      "byteOffset": 2965272,
      "componentType": 5126,
      "count": 1794,
      "max": [
        0.9984379410743713,
        1.0,
        0.9984374642372131
      ],
      "min": [
        -0.9984375834465027,
        -1.0,
        -0.9984382390975952
      ],
      "type": "VEC3"
    },
    {
      "bufferView": 1,
      "byteOffset": 2943744,
      "componentType": 5126,
      "count": 1794,
      "max": [
        0.9897657036781311,
        0.9775753617286682
      ],
      "min": [
        0.027018487453460693,
        0.02081829309463501
      ],
      "type": "VEC2"
    },
    {
      "bufferView": 1,
      "byteOffset": 2958096,
      "componentType": 5126,
      "count": 1794,
      "max": [
        0.9897657036781311,
        0.9775753617286682
      ],
      "min": [
        0.027018487453460693,
        0.02081829309463501
      ],
      "type": "VEC2"
    },
    {
      "bufferView": 1,
      "byteOffset": 2972448,
      "componentType": 5126,
      "count": 1794,
      "max": [
        0.9897657036781311,
        0.9775753617286682
      ],
      "min": [
        0.027018487453460693,
        0.02081829309463501
      ],
      "type": "VEC2"
    },
    {
      "bufferView": 0,
      "byteOffset": 1025712,
      "componentType": 5125,
      "count": 10368,
      "type": "SCALAR"
    },
    {
      "bufferView": 2,
      "byteOffset": 2986800,
      "componentType": 5126,
      "count": 1080,
      "max": [
        8.21341323852539,
        10.834091186523438,
        2.2241625785827637
      ],
      "min": [
        -2.0565109252929688,
        7.126492977142334,
        -2.546159029006958
      ],
      "type": "VEC3"
    },
    {
      "bufferView": 2,
      "byteOffset": 2999760,
      "componentType": 5126,
      "count": 1080,
      "max": [
        0.9963003396987915,
        0.9964787364006042,
        0.9946584105491638
      ],
      "min": [
        -0.996966540813446,
        -0.9996594786643982,
        -0.9946582317352295
      ],
      "type": "VEC3"
    },
    {
      "bufferView": 1,
      "byteOffset": 2986800,
      "componentType": 5126,
      "count": 1080,
      "max": [
        0.9999736547470093,
        0.9997421503067017
      ],
      "min": [
        2.6324205464334227e-05,
        2.6324205464334227e-05
      ],
      "type": "VEC2"
    },
    {
      "bufferView": 1,
      "byteOffset": 2995440,
      "componentType": 5126,
      "count": 1080,
      "max": [
        0.9999736547470093,
        0.9997421503067017
      ],
      "min": [
        2.6324205464334227e-05,
        2.6324205464334227e-05
      ],
      "type": "VEC2"
    },
    {
      "bufferView": 1,
      "byteOffset": 3004080,
      "componentType": 5126,
      "count": 1080,
      "max": [
        0.9999736547470093,
        0.9997421503067017
      ],
      "min": [
        2.6324205464334227e-05,
        2.6324205464334227e-05
      ],
      "type": "VEC2"
    },
    {
      "bufferView": 0,
      "byteOffset": 1067184,
      "componentType": 5125,
      "count": 5328,
      "type": "SCALAR"
    },
    {
      "bufferView": 2,
      "byteOffset": 3012720,
      "componentType": 5126,
      "count": 336,
      "max": [
        15.097748756408691,
        17.3842716217041,
        6.721052646636963
      ],
      "min": [
        6.802026748657227,
        6.661270618438721,
        -3.910365581512451
      ],
      "type": "VEC3"
    },
    {
      "bufferView": 2,
      "byteOffset": 3016752,
      "componentType": 5126,
      "count": 336,
      "max": [
        0.8262039422988892,
        0.82619708776474,
        1.0
      ],
      "min": [
        -0.8443977236747742,
        -0.9817208647727966,
        -1.0
      ],
      "type": "VEC3"
    },
    {
      "bufferView": 1,
      "byteOffset": 3012720,
      "componentType": 5126,
      "count": 336,
      "max": [
        0.9999697804450989,
        0.9543055295944214
      ],
      "min": [
        3.028228456969373e-05,
        3.028228456969373e-05
      ],
      "type": "VEC2"
    },
    {
      "bufferView": 1,
      "byteOffset": 3015408,
      "componentType": 5126,
      "count": 336,
      "max": [
        0.9999697804450989,
        0.9543055295944214
      ],
      "min": [
        3.028228456969373e-05,
        3.028228456969373e-05
      ],
      "type": "VEC2"
    },
    {
      "bufferView": 0,
      "byteOffset": 1088496,
      "componentType": 5125,
      "count": 504,
      "type": "SCALAR"
    }
  ],
  "asset": {
    "extras": {
      "author": "Sengchor (https://sketchfab.com/Sengchor)",
      "license": "CC-BY-4.0 (http://creativecommons.org/licenses/by/4.0/)",
      "source": "https://sketchfab.com/3d-models/observatory-4772cf59da504661bbb487e15307c025",
      "title": "Observatory"
    },
    "generator": "Sketchfab-13.49.0",
    "version": "2.0"
  },
  "bufferViews": [
    {
      "buffer": 0,
      "byteLength": 1090512,
      "name": "floatBufferViews",
      "target": 34963
    },
    {
      "buffer": 0,
      "byteLength": 3018096,
      "byteOffset": 1090512,
      "byteStride": 8,
      "name": "floatBufferViews",
      "target": 34962
    },
    {
      "buffer": 0,
      "byteLength": 3020784,
      "byteOffset": 4108608,
      "byteStride": 12,
      "name": "floatBufferViews",
      "target": 34962
    }
  ],
  "buffers": [
    {
      "byteLength": 7129392,
      "uri": "scene.bin"
    }
  ],
  "materials": [
    {
      "doubleSided": true,
      "name": "material"
    },
    {
      "doubleSided": true,
      "name": "material_1"
    },
    {
      "doubleSided": true,
      "name": "material_2"
    },
    {
      "doubleSided": true,
      "name": "material_3"
    },
    {
      "doubleSided": true,
      "name": "material_4"
    },
    {
      "doubleSided": true,
      "name": "material_5",
      "pbrMetallicRoughness": {
        "metallicFactor": 0.0,
        "roughnessFactor": 0.9583385944714604
      }
    },
    {
      "doubleSided": true,
      "name": "material_6",
      "pbrMetallicRoughness": {
        "baseColorFactor": [
          0.1347365746164536,
          0.1347365746164536,
          0.1347365746164536,
          1.0
        ],
        "metallicFactor": 0.0,
        "roughnessFactor": 0.9619269777875042
      }
    }
  ],
  "meshes": [
    {
      "name": "07_g_0",
      "primitives": [
        {
          "attributes": {
            "NORMAL": 1,
            "POSITION": 0,
            "TEXCOORD_0": 2,
            "TEXCOORD_1": 3,
            "TEXCOORD_2": 4
          },
          "indices": 5,
          "material": 0,
          "mode": 4
        }
      ]
    },
    {
      "name": "07_g_0",
      "primitives": [
        {
          "attributes": {
            "NORMAL": 7,
            "POSITION": 6,
            "TEXCOORD_0": 8,
            "TEXCOORD_1": 9,
            "TEXCOORD_2": 10
          },
          "indices": 11,
          "material": 0,
          "mode": 4
        }
      ]
    },
    {
      "name": "06_f_0",
      "primitives": [
        {
          "attributes": {
            "NORMAL": 13,
            "POSITION": 12,
            "TEXCOORD_0": 14,
            "TEXCOORD_1": 15,
            "TEXCOORD_2": 16
          },
          "indices": 17,
          "material": 1,
          "mode": 4
        }
      ]
    },
    {
      "name": "05_e_0",
      "primitives": [
        {
          "attributes": {
            "NORMAL": 19,
            "POSITION": 18,
            "TEXCOORD_0": 20,
            "TEXCOORD_1": 21,
            "TEXCOORD_2": 22
          },
          "indices": 23,
          "material": 2,
          "mode": 4
        }
      ]
    },
    {
      "name": "04_d_0",
      "primitives": [
        {
          "attributes": {
            "NORMAL": 25,
            "POSITION": 24,
            "TEXCOORD_0": 26,
            "TEXCOORD_1": 27,
            "TEXCOORD_2": 28
          },
          "indices": 29,
          "material": 3,
          "mode": 4
        }
      ]
    },
    {
      "name": "03_c_0",
      "primitives": [
        {
          "attributes": {
            "NORMAL": 31,
            "POSITION": 30,
            "TEXCOORD_0": 32,
            "TEXCOORD_1": 33,
            "TEXCOORD_2": 34
          },
          "indices": 35,
          "material": 4,
          "mode": 4
        }
      ]
    },
    {
      "name": "02_b_0",
      "primitives": [
        {
          "attributes": {
            "NORMAL": 37,
            "POSITION": 36,
            "TEXCOORD_0": 38,
            "TEXCOORD_1": 39,
            "TEXCOORD_2": 40
          },
          "indices": 41,
          "material": 5,
          "mode": 4
        }
      ]
    },
    {
      "name": "01_a_0",
      "primitives": [
        {
          "attributes": {
            "NORMAL": 43,
            "POSITION": 42,
            "TEXCOORD_0": 44,
            "TEXCOORD_1": 45
          },
          "indices": 46,
          "material": 6,
          "mode": 4
        }
      ]
    }
  ],
  "nodes": [
    {
      "children": [
        1
      ],
      "matrix": [
        1.0,
        0.0,
        0.0,
        0.0,
        0.0,
        2.220446049250313e-16,
        -1.0,
        0.0,
        0.0,
        1.0,
        2.220446049250313e-16,
        0.0,
        0.0,
        0.0,
        0.0,
        1.0
      ],
      "name": "Sketchfab_model"
    },
    {
      "children": [
        2
      ],
      "matrix": [
        0.009999999776482582,
        0.0,
        0.0,
        0.0,
        0.0,
        0.0,
        0.009999999776482582,
        0.0,
        0.0,
        -0.009999999776482582,
        0.0,
        0.0,
        0.0,
        0.0,
        0.0,
        1.0
      ],
      "name": "2d7f23b62fae4f01a86ac8565c6fedce.fbx"
    },
    {
      "children": [
        3,
        6,
        8,
        10,
        12,
        14,
        16
      ],
      "name": "RootNode"
    },
    {
      "children": [
        4,
        5
      ],
      "matrix": [
        56.33717516909213,
        -82.62035278287686,
        -9.086016546078473e-16,
        0.0,
        -82.62035278287594,
        -56.337175169091516,
        1.5099579909783709e-05,
        0.0,
        -1.2475326190707581e-05,
        -8.506676782821204e-06,
        -99.99999999999889,
        0.0,
        374.35089111328125,
        1693.5777587890625,
        10.090120315551758,
        1.0
      ],
      "name": "07"
    },
    {
      "mesh": 0,
      "name": "07_g_0"
    },
    {
      "mesh": 1,
      "name": "07_g_0"
    },
    {
      "children": [
        7
      ],
      "matrix": [
        56.33717516909213,
        -82.62035278287686,
        -9.086016546078473e-16,
        0.0,
        -82.62035278287594,
        -56.337175169091516,
        1.5099579909783709e-05,
        0.0,
        -1.2475326190707581e-05,
        -8.506676782821204e-06,
        -99.99999999999889,
        0.0,
        374.35089111328125,
        1693.5777587890625,
        10.090120315551758,
        1.0
      ],
      "name": "06"
    },
    {
      "mesh": 2,
      "name": "06_f_0"
    },
    {
      "children": [
        9
      ],
      "matrix": [
        56.33717516909213,
        -82.62035278287686,
        -9.086016546078473e-16,
        0.0,
        -82.62035278287594,
        -56.337175169091516,
        1.5099579909783709e-05,
        0.0,
        -1.2475326190707581e-05,
        -8.506676782821204e-06,
        -99.99999999999889,
        0.0,
        374.35089111328125,
        1693.5777587890625,
        10.090120315551758,
        1.0
      ],
      "name": "05"
    },
    {
      "mesh": 3,
      "name": "05_e_0"
    },
    {
      "children": [
        11
      ],
      "matrix": [
        56.33717516909213,
        -82.62035278287686,
        -9.086016546078473e-16,
        0.0,
        -82.62035278287594,
        -56.337175169091516,
        1.5099579909783709e-05,
        0.0,
        -1.2475326190707581e-05,
        -8.506676782821204e-06,
        -99.99999999999889,
        0.0,
        374.35089111328125,
        1693.5777587890625,
        10.090120315551758,
        1.0
      ],
      "name": "04"
    },
    {
      "mesh": 4,
      "name": "04_d_0"
    },
    {
      "children": [
        13
      ],
      "matrix": [
        56.33717516909213,
        -82.62035278287686,
        -9.086016546078473e-16,
        0.0,
        -82.62035278287594,
        -56.337175169091516,
        1.5099579909783709e-05,
        0.0,
        -1.2475326190707581e-05,
        -8.506676782821204e-06,
        -99.99999999999889,
        0.0,
        374.35089111328125,
        1693.5777587890625,
        10.090120315551758,
        1.0
      ],
      "name": "03"
    },
    {
      "mesh": 5,
      "name": "03_c_0"
    },
    {
      "children": [
        15
      ],
      "matrix": [
        56.33717516909213,
        -82.62035278287686,
        -9.086016546078473e-16,
        0.0,
        -82.62035278287594,
        -56.337175169091516,
        1.5099579909783709e-05,
        0.0,
        -1.2475326190707581e-05,
        -8.506676782821204e-06,
        -99.99999999999889,
        0.0,
        374.35089111328125,
        1693.5777587890625,
        10.090120315551758,
        1.0
      ],
      "name": "02"
    },
    {
      "mesh": 6,
      "name": "02_b_0"
    },
    {
      "children": [
        17
      ],
      "matrix": [
        56.33717516909213,
        -82.62035278287686,
        -9.086016546078473e-16,
        0.0,
        -82.62035278287594,
        -56.337175169091516,
        1.5099579909783709e-05,
        0.0,
        -1.2475326190707581e-05,
        -8.506676782821204e-06,
        -99.99999999999889,
        0.0,
        374.35089111328125,
        1693.5777587890625,
        10.090120315551758,
        1.0
      ],
      "name": "01"
    },
    {
      "mesh": 7,
      "name": "01_a_0"
    }
  ],
  "scene": 0,
  "scenes": [
    {
      "name": "Sketchfab_Scene",
      "nodes": [
        0
      ]
    }
  ]
}
